<?xml version="1.0" encoding="utf-8"?>
<!-- Generator: Adobe Illustrator 24.2.3, SVG Export Plug-In . SVG Version: 6.00 Build 0)  -->
<svg version="1.1" xmlns="http://www.w3.org/2000/svg" xmlns:xlink="http://www.w3.org/1999/xlink" x="0px" y="0px"
	 viewBox="0 0 1024 308" style="enable-background:new 0 0 1024 308;" xml:space="preserve">
<style type="text/css">
	.st0{fill:none;}
	.st1{fill:#343434;}
	.st2{fill:#009639;}
	.st3{fill:#FFFFFF;}
	.st4{fill:none;stroke:#FFFFFF;stroke-width:0.96387;stroke-linecap:round;stroke-miterlimit:10;}
	.st5{fill:none;stroke:#FFFFFF;stroke-width:0.964;stroke-miterlimit:10;}
	.st6{fill:#999999;}
	.st7{fill:#CCCCCC;}
	.st8{fill:none;stroke:#666666;stroke-width:2;stroke-linecap:round;stroke-miterlimit:10;}
	.st9{fill:none;stroke:#009639;stroke-width:2;stroke-linecap:round;stroke-linejoin:round;stroke-miterlimit:10;}
	.st10{fill:#222222;}
</style>
<g id="Background">
</g>
<g id="Layer_1">
	<g>
		<rect x="379.71255" y="130.25" class="st0" width="264.57489" height="67.9045"/>
		<path class="st1" d="M485.7085,135.11816v11.06445h-2.66406v-16.00879h2.68848l5.78418,10.65625v-10.65625h2.66406v16.00879
			h-2.54395L485.7085,135.11816z"/>
		<path class="st1" d="M503.18164,129.90918c2.5918,0,4.17578,1.53613,5.08789,3.4082l-2.16016,1.00879
			c-0.57617-1.17676-1.53613-2.06445-2.92773-2.06445c-2.28076,0-3.81689,2.28027-3.81689,5.92871
			c0,3.62402,1.53613,5.92871,3.81689,5.92871c1.17578,0,2.13574-0.55273,2.66406-1.15234v-2.97656h-3.36035v-2.32812h5.88086
			v6.36035c-1.27246,1.51172-2.97656,2.47168-5.18457,2.47168c-3.93701,0-6.52881-3.35938-6.52881-8.30371
			C496.65283,133.22168,499.24463,129.90918,503.18164,129.90918z"/>
		<path class="st1" d="M511.07715,130.17383h2.66406v16.00879h-2.66406V130.17383z"/>
		<path class="st1" d="M519.47656,135.11816v11.06445h-2.66406v-16.00879h2.68848l5.78418,10.65625v-10.65625h2.66406v16.00879
			h-2.54395L519.47656,135.11816z"/>
		<path class="st1" d="M535.89258,140.08594l-3.28809,6.09668h-3.07227l4.72852-8.18457l-4.44043-7.82422h3.04883l3.02344,5.75977
			l3.02441-5.75977h3.07227l-4.44043,7.80078l4.72852,8.20801h-3.07227L535.89258,140.08594z"/>
		<path class="st1" d="M431.0376,154.17285h2.66406v16.00977h-2.66406V154.17285z"/>
		<path class="st1" d="M443.06201,162.28613c0-1.36816-0.62402-1.87305-1.65527-1.87305c-1.03223,0-1.9209,0.79297-2.35254,1.6084
			v8.16113h-2.40039v-11.59277h2.40039v1.55957c0.62402-0.93555,1.91992-1.84766,3.36035-1.84766
			c2.08789,0,3.04785,1.15137,3.04785,3.14355v8.7373h-2.40039V162.28613z"/>
		<path class="st1" d="M448.46143,167.13379c0.69629,0.76855,1.91992,1.44043,3.12012,1.44043s1.9209-0.55176,1.9209-1.44043
			c0-0.95996-1.00879-1.3916-2.18457-1.82422c-1.63184-0.5752-3.55273-1.27148-3.55273-3.69629
			c0-1.7998,1.44043-3.31152,3.98438-3.31152c1.6084,0,2.9043,0.59961,3.81641,1.4873l-1.00781,1.63281
			c-0.57617-0.69629-1.6084-1.22461-2.75977-1.22461c-1.08008,0-1.77637,0.52832-1.77637,1.27246
			c0,0.86426,0.95996,1.27246,2.1123,1.67969c1.65625,0.60059,3.64746,1.32031,3.64746,3.86426
			c0,1.99219-1.60742,3.45703-4.15234,3.45703c-1.77539,0-3.26367-0.60059-4.24805-1.65625L448.46143,167.13379z"/>
		<path class="st1" d="M458.3501,167.58984v-6.91211h-1.5127v-2.08789h1.5127v-3.16895h2.39941v3.16895h1.9209v2.08789h-1.9209
			v6.4082c0,0.79199,0.26465,1.27246,0.88867,1.27246c0.38379,0,0.74414-0.16797,0.91211-0.38379l0.57617,1.7998
			c-0.43262,0.43164-1.10449,0.69629-2.08887,0.69629C459.21338,170.4707,458.3501,169.48633,458.3501,167.58984z"/>
		<path class="st1" d="M470.71045,169.00586c-0.69629,0.96094-1.87207,1.46484-3.04883,1.46484
			c-1.87207,0-3.55176-1.39258-3.55176-3.86426c0-2.49707,1.67969-3.76855,3.55176-3.76855
			c1.17676,0,2.37598,0.45605,3.04883,1.3916v-1.67969c0-1.39258-0.81641-2.20801-2.25684-2.20801
			c-1.03223,0-1.99219,0.4082-2.87988,1.32031l-0.93652-1.68066c1.17676-1.17578,2.76074-1.67969,4.24902-1.67969
			c2.42383,0,4.2002,1.12793,4.2002,3.95996v7.9209h-2.37598V169.00586z M470.71045,165.79004
			c-0.45605-0.81641-1.32031-1.2959-2.18457-1.2959c-1.24805,0-2.0166,0.91211-2.0166,2.16016s0.76855,2.16016,2.0166,2.16016
			c0.86426,0,1.72852-0.48047,2.18457-1.27246V165.79004z"/>
		<path class="st1" d="M482.32568,162.28613c0-1.36816-0.62402-1.87305-1.65527-1.87305c-1.03223,0-1.9209,0.79297-2.35254,1.6084
			v8.16113h-2.40039v-11.59277h2.40039v1.55957c0.62402-0.93555,1.91992-1.84766,3.36035-1.84766
			c2.08789,0,3.04785,1.15137,3.04785,3.14355v8.7373h-2.40039V162.28613z"/>
		<path class="st1" d="M492.06982,158.30176c1.72754,0,2.83203,0.69531,3.52832,1.55957l-1.22461,1.63184
			c-0.57617-0.74316-1.22363-1.08008-2.06348-1.08008c-1.82422,0-2.85645,1.75293-2.85645,3.96094s1.03223,3.98438,2.85645,3.98438
			c0.83984,0,1.4873-0.36035,2.06348-1.08008l1.22461,1.63184c-0.69629,0.86426-1.80078,1.56055-3.52832,1.56055
			c-3.09668,0-5.08887-2.59277-5.08887-6.09668C486.98096,160.86914,488.97314,158.30176,492.06982,158.30176z"/>
		<path class="st1" d="M501.91016,158.30176c3.14453,0,4.82422,2.66406,4.82422,6.16797v0.69629h-7.36865
			c0.0957,1.89648,1.15137,3.33594,3.02393,3.33594c0.91211,0,1.94434-0.45605,2.61621-1.24805l1.15234,1.44043
			c-0.9834,1.12793-2.44824,1.77637-4.00781,1.77637c-3.19287,0-5.20947-2.49609-5.20947-6.09668
			C496.94092,161.01367,498.81299,158.30176,501.91016,158.30176z M499.34131,163.46191h5.06494
			c-0.02441-1.44043-0.67188-3.2168-2.52051-3.2168C500.08545,160.24512,499.41357,162.06934,499.34131,163.46191z"/>
		<path class="st1" d="M525.52539,158.54102l-3.8877,11.6416h-1.03223l-3.84082-11.6416v11.6416h-2.66309v-16.00977h3.59961
			l3.43164,10.34473l3.45703-10.34473h3.57617v16.00977h-2.64062V158.54102z"/>
		<path class="st1" d="M537.09375,169.00586c-0.69629,0.96094-1.87207,1.46484-3.04883,1.46484
			c-1.87207,0-3.55176-1.39258-3.55176-3.86426c0-2.49707,1.67969-3.76855,3.55176-3.76855
			c1.17676,0,2.37598,0.45605,3.04883,1.3916v-1.67969c0-1.39258-0.81641-2.20801-2.25684-2.20801
			c-1.03223,0-1.99219,0.4082-2.87988,1.32031l-0.93652-1.68066c1.17676-1.17578,2.76074-1.67969,4.24902-1.67969
			c2.42383,0,4.2002,1.12793,4.2002,3.95996v7.9209h-2.37598V169.00586z M537.09375,165.79004
			c-0.45605-0.81641-1.32031-1.2959-2.18457-1.2959c-1.24805,0-2.0166,0.91211-2.0166,2.16016s0.76855,2.16016,2.0166,2.16016
			c0.86426,0,1.72852-0.48047,2.18457-1.27246V165.79004z"/>
		<path class="st1" d="M548.70898,162.28613c0-1.36816-0.62402-1.87305-1.65527-1.87305c-1.03223,0-1.9209,0.79297-2.35254,1.6084
			v8.16113h-2.40039v-11.59277h2.40039v1.55957c0.62402-0.93555,1.91992-1.84766,3.36035-1.84766
			c2.08789,0,3.04785,1.15137,3.04785,3.14355v8.7373h-2.40039V162.28613z"/>
		<path class="st1" d="M559.94141,169.00586c-0.69629,0.96094-1.87207,1.46484-3.04883,1.46484
			c-1.87207,0-3.55176-1.39258-3.55176-3.86426c0-2.49707,1.67969-3.76855,3.55176-3.76855
			c1.17676,0,2.37598,0.45605,3.04883,1.3916v-1.67969c0-1.39258-0.81641-2.20801-2.25684-2.20801
			c-1.03223,0-1.99219,0.4082-2.87988,1.32031l-0.93652-1.68066c1.17676-1.17578,2.76074-1.67969,4.24902-1.67969
			c2.42383,0,4.2002,1.12793,4.2002,3.95996v7.9209h-2.37598V169.00586z M559.94141,165.79004
			c-0.45605-0.81641-1.32031-1.2959-2.18457-1.2959c-1.24805,0-2.0166,0.91211-2.0166,2.16016s0.76855,2.16016,2.0166,2.16016
			c0.86426,0,1.72852-0.48047,2.18457-1.27246V165.79004z"/>
		<path class="st1" d="M566.03613,171.57422c0.79297,0.86426,1.80078,1.2959,3.00098,1.2959
			c1.43945,0,2.73633-0.79199,2.73633-2.90332v-1.65625c-0.69629,1.17578-1.82422,1.89551-2.97656,1.89551
			c-2.5918,0-4.22461-2.23145-4.22461-5.95215c0-3.67285,1.6084-5.95215,4.22461-5.95215c1.12793,0,2.25586,0.59961,2.97656,1.84766
			v-1.55957h2.37598v11.18457c0,4.00781-2.49609,5.1123-4.99219,5.1123c-1.65625,0-2.95215-0.38379-4.10449-1.46387
			L566.03613,171.57422z M571.77344,161.99805c-0.4082-0.86426-1.34473-1.58496-2.25684-1.58496
			c-1.65625,0-2.47168,1.6084-2.47168,3.84082c0,2.20801,0.81543,3.81641,2.47168,3.81641
			c0.91211,0,1.84863-0.71973,2.25684-1.58398V161.99805z"/>
		<path class="st1" d="M581.37305,158.30176c3.14453,0,4.82422,2.66406,4.82422,6.16797v0.69629h-7.36816
			c0.0957,1.89648,1.15137,3.33594,3.02344,3.33594c0.91211,0,1.94434-0.45605,2.61621-1.24805l1.15234,1.44043
			c-0.9834,1.12793-2.44824,1.77637-4.00781,1.77637c-3.19238,0-5.20898-2.49609-5.20898-6.09668
			C576.4043,161.01367,578.27637,158.30176,581.37305,158.30176z M578.80469,163.46191h5.06445
			c-0.02441-1.44043-0.67188-3.2168-2.52051-3.2168C579.54883,160.24512,578.87695,162.06934,578.80469,163.46191z"/>
		<path class="st1" d="M588.35645,158.58984h2.40039v1.7041c0.67188-1.12891,1.89648-1.96875,3.19238-1.96875v2.37598
			c-0.19238-0.04785-0.4082-0.07129-0.62402-0.07129c-0.98438,0-2.08887,0.74414-2.56836,1.60742v7.94531h-2.40039V158.58984z"/>
	</g>
	<g>
		<g>
			<path class="st2" d="M468.69803,95.25151c0.47018,0.81559,1.13309,1.45183,1.8978,1.88326l38.82349,22.41477l0.00122-0.00121
				c0.75742,0.44597,1.63846,0.70168,2.58008,0.70168c0.94159,0,1.82385-0.25571,2.58008-0.70168l38.82471-22.41477
				c0.76471-0.43143,1.42517-1.06645,1.89661-1.88204c0.47137-0.81558,0.69073-1.70631,0.68225-2.58492V47.83704l-0.00122-0.00121
				c0.00726-0.87739-0.21204-1.76933-0.68225-2.58492c-0.47144-0.81559-1.13434-1.45061-1.89783-1.88325l-38.82471-22.41477
				v-0.00121c-0.75623-0.44597-1.63721-0.70168-2.57886-0.70168c-0.9404,0-1.82144,0.2557-2.57764,0.70168v0.00121
				l-38.82352,22.41477c-0.76468,0.43264-1.42758,1.06766-1.89902,1.88325c-0.47018,0.81559-0.68954,1.70753-0.68228,2.58492
				l-0.00119,0.00121V92.6666c-0.00848,0.8786,0.21085,1.76933,0.68106,2.58492"/>
			<g>
				<g>
					<path class="st3" d="M495.41968,67.62679c0.18002,0.31229,0.43387,0.55591,0.72665,0.7211l14.86554,8.58262l0.00046-0.00047
						c0.29001,0.17076,0.62735,0.26867,0.98792,0.26867c0.36053,0,0.69836-0.09791,0.98792-0.26867l14.86597-8.58262
						c0.29279-0.16519,0.54572-0.40834,0.7262-0.72063c0.18048-0.31229,0.26453-0.65334,0.26123-0.98976V49.47179l-0.00043-0.00046
						c0.00275-0.33595-0.08124-0.67748-0.26129-0.98977c-0.18048-0.31229-0.43433-0.55544-0.72662-0.7211l-14.86597-8.58262
						v-0.00047c-0.28955-0.17076-0.62695-0.26867-0.98749-0.26867c-0.36008,0-0.69742,0.09791-0.98697,0.26867v0.00047
						l-14.86551,8.58262c-0.29282,0.16565-0.54663,0.40881-0.72714,0.7211c-0.18005,0.31229-0.26404,0.65381-0.26123,0.98977
						l-0.00049,0.00046v17.16524c-0.00323,0.33642,0.08075,0.67747,0.2608,0.98976"/>
				</g>
				<circle class="st3" cx="482.73486" cy="74.97176" r="6.25003"/>
				<line class="st4" x1="511.99963" y1="58.04889" x2="511.99963" y2="93.25909"/>
				<line class="st5" x1="511.99963" y1="58.04889" x2="482.73486" y2="74.95785"/>
				<circle class="st3" cx="541.2644" cy="74.97176" r="6.25003"/>
				<line class="st5" x1="511.99963" y1="58.04889" x2="541.2644" y2="74.95785"/>
				<circle class="st3" cx="512" cy="93.25784" r="8.33338"/>
			</g>
		</g>
		<path class="st6" d="M551.29852,110.96273h0.63794v-1.42097h0.50464c0.33362,0,0.57294,0.03252,0.70886,0.11836
			c0.22308,0.13071,0.33685,0.411,0.33685,0.82656v0.29135l0.01434,0.1086c0.00781,0.02406,0.00781,0.03381,0.00977,0.04552
			c0.00323,0.01756,0.00452,0.02277,0.01428,0.03057h0.59113l-0.02142-0.04032c-0.01758-0.02731-0.02734-0.0891-0.02863-0.18469
			c-0.00848-0.1021-0.00848-0.18925-0.00848-0.26989v-0.26923c0-0.18079-0.06763-0.36549-0.19769-0.56318
			c-0.13397-0.19055-0.34467-0.3037-0.62952-0.35378c0.22504-0.03772,0.40192-0.09755,0.52484-0.17039
			c0.24127-0.15218,0.35248-0.3993,0.35248-0.71535c0-0.45458-0.1795-0.76543-0.55798-0.91761
			c-0.20874-0.08585-0.53589-0.12942-0.98914-0.12942h-1.26227V110.96273z M553.11292,109.01435
			c-0.12811,0.05527-0.33167,0.08064-0.60675,0.08064h-0.5697v-1.31561h0.5437c0.35242,0,0.60803,0.05007,0.76672,0.14112
			c0.16193,0.09039,0.23993,0.26533,0.23993,0.52741C553.48682,108.72755,553.36523,108.91095,553.11292,109.01435
			 M554.9657,106.84225c-0.64905-0.64057-1.42554-0.95793-2.34314-0.95793c-0.89813,0-1.68176,0.31736-2.3158,0.95793
			c-0.64905,0.64252-0.96313,1.41966-0.96313,2.33208c0,0.9111,0.31085,1.6915,0.95142,2.33076
			c0.63599,0.64903,1.42096,0.97094,2.32751,0.97094c0.9176,0,1.69409-0.32191,2.34314-0.97094
			c0.63599-0.64252,0.96442-1.42616,0.96442-2.33076C555.93011,108.25542,555.60168,107.48478,554.9657,106.84225
			 M554.6308,107.16937c0.55536,0.54237,0.82721,1.21871,0.82721,2.00496c0,0.77844-0.27185,1.45998-0.82721,2.01471
			c-0.54694,0.55213-1.21875,0.83567-2.00824,0.83567c-0.78363,0-1.45154-0.28354-2.00562-0.83567
			c-0.54364-0.55473-0.8233-1.23627-0.8233-2.01471c0-0.78625,0.27966-1.46259,0.8233-2.00496
			c0.56189-0.56448,1.22717-0.84152,2.00562-0.84152C553.40881,106.32785,554.07733,106.60489,554.6308,107.16937"/>
	</g>
	<g>
		<g>
			<path class="st7" d="M193.75,282.74997c0,2.75-2.25,5-5,5h-77.5c-2.75,0-5-2.25-5-5V205.25c0-2.75,2.25-5,5-5h77.5
				c2.75,0,5,2.25,5,5V282.74997z"/>
			<path class="st8" d="M193.75,282.74997c0,2.75-2.25,5-5,5h-77.5c-2.75,0-5-2.25-5-5V205.25c0-2.75,2.25-5,5-5h77.5
				c2.75,0,5,2.25,5,5V282.74997z"/>
		</g>
		<g>
			<g>
				<path class="st2" d="M120.77113,260.87601c0.31739,0.55051,0.76484,0.97998,1.28101,1.27118l26.20589,15.12997l0.00081-0.00082
					c0.51126,0.30106,1.10596,0.47363,1.74155,0.47363c0.6356,0,1.23112-0.17258,1.74156-0.47363l26.2067-15.12994
					c0.51616-0.29123,0.96198-0.71988,1.28018-1.27039c0.31821-0.55054,0.46628-1.15176,0.46056-1.74481v-30.25995l-0.00082-0.00082
					c0.00491-0.59224-0.14316-1.19429-0.46054-1.74481c-0.31821-0.55052-0.76566-0.97917-1.28101-1.27119l-26.2067-15.12997
					v-0.00081c-0.51045-0.30104-1.10515-0.47363-1.74074-0.47363c-0.63478,0-1.22948,0.17259-1.73991,0.47363v0.00081
					l-26.20588,15.12997c-0.51617,0.29202-0.96362,0.72067-1.28183,1.27119c-0.31739,0.55052-0.46545,1.15257-0.46054,1.74481
					l-0.00082,0.00082v30.25995c-0.00573,0.59305,0.14233,1.19427,0.45972,1.74481"/>
				<path class="st3" d="M141.60945,255.52007c0,1.86098-1.50842,3.37022-3.37021,3.37022
					c-1.86099,0-3.37022-1.50925-3.37022-3.37022l0.00082,0.00082l0.00327-23.13506c0-1.79227,1.58368-3.27451,3.82668-3.27451
					c1.60576,0,3.45938,0.64787,4.59396,2.05403l1.01842,1.21884l14.07965,16.84943V232.4799h-0.00163
					c0-1.86098,1.50923-3.37021,3.37103-3.37021c1.86098,0,3.3694,1.50923,3.3694,3.37021h-0.00082l-0.00327,23.13341
					c0,1.79227-1.58449,3.27451-3.82668,3.27451c-1.60657,0-3.45938-0.64703-4.59396-2.05402l-15.09807-18.06828v16.75537
					L141.60945,255.52007z"/>
			</g>
			<path class="st6" d="M176.52647,271.48209h0.43063v-0.95914h0.34064c0.2252,0,0.38673,0.02194,0.47849,0.0799
				c0.15056,0.08823,0.22739,0.2774,0.22739,0.55792v0.19666l0.00964,0.0733c0.00528,0.01624,0.00528,0.02283,0.00659,0.03073
				c0.0022,0.01184,0.00307,0.01535,0.00966,0.02063h0.39903l-0.0145-0.02722c-0.01186-0.01843-0.01843-0.06012-0.01932-0.12466
				c-0.00571-0.06891-0.00571-0.12775-0.00571-0.18216v-0.18173c0-0.12204-0.04564-0.2467-0.13344-0.38016
				c-0.09042-0.12863-0.23267-0.20499-0.42493-0.2388c0.15189-0.02545,0.27129-0.06586,0.35425-0.11502
				c0.16286-0.10272,0.23793-0.26953,0.23793-0.48285c0-0.30685-0.12115-0.51666-0.37665-0.61938
				c-0.1409-0.05795-0.36171-0.08737-0.66768-0.08737h-0.85204V271.48209z M177.75121,270.16693
				c-0.08647,0.03732-0.22388,0.05444-0.40956,0.05444h-0.38454v-0.88806h0.36697c0.23793,0,0.41045,0.03381,0.51755,0.09528
				c0.1093,0.061,0.16199,0.17911,0.16199,0.35599C178.00362,269.97336,177.92152,270.09714,177.75121,270.16693
				 M179.00183,268.70078c-0.4381-0.4324-0.96222-0.64661-1.58162-0.64661c-0.60622,0-1.13516,0.2142-1.56316,0.64661
				c-0.4381,0.43369-0.65012,0.95828-0.65012,1.57416c0,0.61499,0.20982,1.14175,0.64221,1.57324
				c0.42931,0.43811,0.95914,0.6554,1.57106,0.6554c0.6194,0,1.14352-0.21729,1.58162-0.6554
				c0.42932-0.43369,0.65099-0.96265,0.65099-1.57324C179.65282,269.65466,179.43115,269.13446,179.00183,268.70078
				 M178.77577,268.92157c0.37486,0.36612,0.55836,0.82263,0.55836,1.35336c0,0.52542-0.1835,0.98547-0.55836,1.35992
				c-0.36919,0.37268-0.82265,0.56406-1.35556,0.56406c-0.52895,0-0.97977-0.19138-1.35378-0.56406
				c-0.36697-0.37445-0.55574-0.8345-0.55574-1.35992c0-0.53073,0.18877-0.98724,0.55574-1.35336
				c0.37927-0.38101,0.82834-0.56802,1.35378-0.56802C177.95093,268.35355,178.40219,268.54056,178.77577,268.92157"/>
		</g>
	</g>
	<g>
		<g>
			<path class="st7" d="M676.41669,282.75c0,2.75-2.25,5-5,5h-77.5c-2.75,0-5-2.25-5-5v-77.49997c0-2.75,2.25-5,5-5h77.5
				c2.75,0,5,2.25,5,5V282.75z"/>
			<path class="st8" d="M676.41669,282.75c0,2.75-2.25,5-5,5h-77.5c-2.75,0-5-2.25-5-5v-77.49997c0-2.75,2.25-5,5-5h77.5
				c2.75,0,5,2.25,5,5V282.75z"/>
		</g>
		<g>
			<g>
				<path class="st2" d="M603.43781,260.87604c0.31738,0.55051,0.76483,0.97998,1.28101,1.27118l26.20587,15.12997l0.00079-0.00082
					c0.51129,0.30103,1.10596,0.47363,1.74158,0.47363s1.23114-0.17261,1.74158-0.47363l26.20667-15.12997
					c0.51617-0.2912,0.96198-0.71985,1.28021-1.27036c0.31818-0.55054,0.46625-1.15176,0.46051-1.74484v-30.25992l-0.00079-0.00082
					c0.00488-0.59224-0.14319-1.19431-0.46057-1.74483c-0.31818-0.55052-0.76562-0.97916-1.28101-1.27119l-26.20667-15.12996
					v-0.00082c-0.51044-0.30103-1.10516-0.47363-1.74072-0.47363c-0.63483,0-1.22949,0.17261-1.73993,0.47363v0.00082
					l-26.20587,15.12996c-0.51617,0.29204-0.96362,0.72067-1.28186,1.27119c-0.31738,0.55052-0.46545,1.15259-0.46051,1.74483
					l-0.00085,0.00082v30.25992c-0.00568,0.59308,0.14233,1.19431,0.45972,1.74484"/>
				<path class="st3" d="M624.27612,255.5201c0,1.86098-1.50842,3.37019-3.37024,3.37019
					c-1.86096,0-3.37018-1.50922-3.37018-3.37019l0.00079,0.00081l0.0033-23.13504c0-1.79227,1.58368-3.27451,3.82666-3.27451
					c1.60577,0,3.45935,0.64786,4.59393,2.05403l1.01843,1.21884l14.07965,16.84943v-16.75372h-0.00165
					c0-1.86098,1.50928-3.37021,3.37103-3.37021c1.86102,0,3.36945,1.50923,3.36945,3.37021h-0.00085l-0.00323,23.13341
					c0,1.79227-1.58453,3.27451-3.82672,3.27451c-1.60657,0-3.45935-0.64703-4.59393-2.05402l-15.09808-18.06828v16.75536
					L624.27612,255.5201z"/>
			</g>
			<path class="st6" d="M659.19312,271.48212h0.43066v-0.95917h0.34064c0.22522,0,0.38672,0.02197,0.47845,0.0799
				c0.15057,0.08826,0.22742,0.27744,0.22742,0.55795v0.19666l0.00964,0.0733c0.00525,0.01624,0.00525,0.02283,0.00659,0.03073
				c0.0022,0.01184,0.00305,0.01535,0.00964,0.02063h0.39905l-0.01453-0.02722c-0.01184-0.01843-0.01843-0.06015-0.01929-0.12466
				c-0.00574-0.06891-0.00574-0.12775-0.00574-0.18219v-0.18173c0-0.12201-0.04559-0.24667-0.13342-0.38013
				c-0.09039-0.12863-0.23267-0.20502-0.42493-0.2388c0.15192-0.02548,0.2713-0.06586,0.35425-0.11502
				c0.16284-0.10272,0.23792-0.26953,0.23792-0.48288c0-0.30682-0.12115-0.51666-0.37659-0.61938
				c-0.14093-0.05792-0.36176-0.08734-0.66772-0.08734h-0.85205V271.48212z M660.41785,270.16696
				c-0.08643,0.03729-0.22388,0.05441-0.40955,0.05441h-0.38452v-0.88803h0.36694c0.23798,0,0.41046,0.03381,0.51758,0.09528
				c0.10931,0.061,0.16199,0.17908,0.16199,0.35599C660.67029,269.97336,660.5882,270.09717,660.41785,270.16696
				 M661.66852,268.70081c-0.43811-0.4324-0.96222-0.64661-1.5816-0.64661c-0.60626,0-1.13519,0.2142-1.56317,0.64661
				c-0.43811,0.43369-0.65015,0.95825-0.65015,1.57413c0,0.61502,0.20984,1.14178,0.64221,1.57327
				c0.42932,0.43811,0.95917,0.6554,1.57111,0.6554c0.61938,0,1.14349-0.21729,1.5816-0.6554
				c0.42932-0.43369,0.65094-0.96265,0.65094-1.57327C662.31946,269.65466,662.09784,269.13449,661.66852,268.70081
				 M661.44244,268.9216c0.37488,0.36609,0.55835,0.82263,0.55835,1.35333c0,0.52545-0.18347,0.9855-0.55835,1.35995
				c-0.3692,0.37268-0.82263,0.56406-1.35553,0.56406c-0.52899,0-0.9798-0.19138-1.35382-0.56406
				c-0.36694-0.37445-0.55573-0.8345-0.55573-1.35995c0-0.5307,0.18878-0.98724,0.55573-1.35333
				c0.37927-0.38104,0.82837-0.56802,1.35382-0.56802C660.61761,268.35358,661.06885,268.54056,661.44244,268.9216"/>
		</g>
	</g>
	<g>
		<g>
			<path class="st7" d="M917.75,282.74997c0,2.75-2.25,5-5,5h-77.5c-2.75,0-5-2.25-5-5V205.25c0-2.75,2.25-5,5-5h77.5
				c2.75,0,5,2.25,5,5V282.74997z"/>
			<path class="st8" d="M917.75,282.74997c0,2.75-2.25,5-5,5h-77.5c-2.75,0-5-2.25-5-5V205.25c0-2.75,2.25-5,5-5h77.5
				c2.75,0,5,2.25,5,5V282.74997z"/>
		</g>
		<g>
			<path class="st6" d="M900.52649,271.48209h0.4306v-0.95914h0.34064c0.22522,0,0.38678,0.02194,0.47852,0.0799
				c0.15057,0.08823,0.22736,0.2774,0.22736,0.55792v0.19666l0.00964,0.0733c0.00531,0.01624,0.00531,0.02283,0.00659,0.03073
				c0.0022,0.01184,0.00311,0.01535,0.00964,0.02063h0.39905l-0.01447-0.02722c-0.01184-0.01843-0.01843-0.06012-0.01935-0.12466
				c-0.00568-0.06891-0.00568-0.12775-0.00568-0.18216v-0.18173c0-0.12204-0.04565-0.2467-0.13348-0.38016
				c-0.09039-0.12863-0.2326-0.20499-0.42493-0.2388c0.15192-0.02545,0.2713-0.06586,0.35425-0.11502
				c0.1629-0.10272,0.23798-0.26953,0.23798-0.48285c0-0.30685-0.12115-0.51666-0.37665-0.61938
				c-0.14093-0.05795-0.36169-0.08737-0.66766-0.08737h-0.85205V271.48209z M901.75122,270.16693
				c-0.08649,0.03732-0.22388,0.05444-0.40961,0.05444h-0.38452v-0.88806h0.367c0.23792,0,0.4104,0.03381,0.51752,0.09528
				c0.10931,0.061,0.16199,0.17911,0.16199,0.35599C902.0036,269.97336,901.92151,270.09714,901.75122,270.16693
				 M903.00183,268.70078c-0.43811-0.4324-0.96222-0.64661-1.5816-0.64661c-0.6062,0-1.13519,0.2142-1.56317,0.64661
				c-0.43811,0.43369-0.65015,0.95828-0.65015,1.57416c0,0.61499,0.20984,1.14175,0.64221,1.57324
				c0.42932,0.43811,0.95917,0.6554,1.57111,0.6554c0.61938,0,1.14349-0.21729,1.5816-0.6554
				c0.42932-0.43369,0.651-0.96265,0.651-1.57324C903.65283,269.65466,903.43115,269.13446,903.00183,268.70078
				 M902.77576,268.92157c0.37488,0.36612,0.55835,0.82263,0.55835,1.35336c0,0.52542-0.18347,0.98547-0.55835,1.35992
				c-0.36914,0.37268-0.82263,0.56406-1.35553,0.56406c-0.52899,0-0.9798-0.19138-1.35382-0.56406
				c-0.36694-0.37445-0.55573-0.8345-0.55573-1.35992c0-0.53073,0.18878-0.98724,0.55573-1.35336
				c0.37927-0.38101,0.82837-0.56802,1.35382-0.56802C901.95093,268.35355,902.40222,268.54056,902.77576,268.92157"/>
			<g>
				<g>
					<path class="st2" d="M844.77112,260.87601c0.31738,0.55051,0.76483,0.97998,1.28101,1.27118l26.20587,15.12997l0.00085-0.00082
						c0.51123,0.30106,1.10596,0.47363,1.74152,0.47363c0.63562,0,1.23114-0.17258,1.74158-0.47363l26.20667-15.12994
						c0.51617-0.29123,0.96204-0.71988,1.28021-1.27039c0.31824-0.55054,0.46625-1.15176,0.46057-1.74481v-30.25995
						l-0.00085-0.00082c0.00494-0.59224-0.14313-1.19429-0.46051-1.74481c-0.31824-0.55052-0.76569-0.97917-1.28101-1.27119
						l-26.20673-15.12997v-0.00081c-0.51044-0.30104-1.10516-0.47363-1.74072-0.47363c-0.63477,0-1.22949,0.17259-1.73993,0.47363
						v0.00081l-26.20587,15.12997c-0.51617,0.29202-0.96362,0.72067-1.28186,1.27119
						c-0.31738,0.55052-0.46545,1.15257-0.46051,1.74481l-0.00085,0.00082v30.25995
						c-0.00568,0.59305,0.14233,1.19427,0.45972,1.74481"/>
				</g>
				<g>
					<path class="st3" d="M868.92841,253.8844c0.88507,1.09726,2.33093,1.60332,3.58325,1.60332
						c1.75024,0,2.98859-1.15555,2.98859-2.55479v-18.1203c0-1.40625-1.14972-2.55713-2.55597-2.55713h-0.07458
						c-1.4436,0-2.62598,1.18237-2.62598,2.62709l-0.00116,12.88127c0,0.06529-0.08044,0.09445-0.12244,0.04431l-11.6546-13.94937
						c-0.88501-1.09607-2.33209-1.60214-3.58441-1.60214c-1.74908,0-2.98505,1.15788-2.98505,2.55597l-0.00232,18.1203
						c0,1.40508,1.14972,2.55595,2.55475,2.55595h0.07581c1.4436,0,2.62476-1.18236,2.62476-2.62592v-12.88243
						c0-0.06413,0.08282-0.09329,0.12482-0.04433L868.92841,253.8844z"/>
					<path class="st3" d="M895.74158,242.32846h-5.38593c-0.03381,0-0.06183-0.02681-0.06183-0.06296v-5.3848
						c0-1.24649-1.02026-2.26794-2.26794-2.26794c-1.24652,0-2.26794,1.02145-2.26794,2.26794v4.35751v0.53171v0.26703
						c0,0.15974-0.13177,0.2915-0.29266,0.2915h-0.33466h-0.46295h-4.58722c-1.24646,0-2.26678,1.02029-2.26678,2.26796
						s1.02032,2.26794,2.26562,2.26794h5.61682c0.03503,0,0.06183,0.02798,0.06183,0.0618v5.38596
						c0,1.24767,1.02142,2.26794,2.26794,2.26794c1.24768,0,2.26794-1.02028,2.26794-2.26794v-4.3575v-0.52821v-0.27052
						c0-0.16092,0.13062-0.29152,0.2915-0.29152h0.14929h0.64948h4.35748c1.24768,0,2.26794-1.02028,2.26794-2.26794
						S896.98926,242.32846,895.74158,242.32846"/>
				</g>
			</g>
		</g>
	</g>
	<g>
		<g>
			<path class="st7" d="M435.08334,282.75c0,2.75-2.25,5-5,5h-77.5c-2.75,0-5-2.25-5-5v-77.49997c0-2.75,2.25-5,5-5h77.5
				c2.75,0,5,2.25,5,5V282.75z"/>
			<path class="st8" d="M435.08334,282.75c0,2.75-2.25,5-5,5h-77.5c-2.75,0-5-2.25-5-5v-77.49997c0-2.75,2.25-5,5-5h77.5
				c2.75,0,5,2.25,5,5V282.75z"/>
		</g>
		<g>
			<path class="st6" d="M417.8598,271.48212h0.43063v-0.95917h0.34064c0.22519,0,0.38675,0.02197,0.47849,0.0799
				c0.15057,0.08826,0.22739,0.27744,0.22739,0.55795v0.19666l0.00964,0.0733c0.00528,0.01624,0.00528,0.02283,0.00659,0.03073
				c0.0022,0.01184,0.00308,0.01535,0.00967,0.02063h0.39902l-0.0145-0.02722c-0.01184-0.01843-0.01843-0.06015-0.01932-0.12466
				c-0.00571-0.06891-0.00571-0.12775-0.00571-0.18219v-0.18173c0-0.12201-0.04565-0.24667-0.13345-0.38013
				c-0.09042-0.12863-0.23264-0.20502-0.42493-0.2388c0.15192-0.02548,0.2713-0.06586,0.35428-0.11502
				c0.16284-0.10272,0.23792-0.26953,0.23792-0.48288c0-0.30682-0.12115-0.51666-0.37665-0.61938
				c-0.1409-0.05792-0.36169-0.08734-0.66766-0.08734h-0.85205V271.48212z M419.08453,270.16696
				c-0.08649,0.03729-0.22388,0.05441-0.40955,0.05441h-0.38455v-0.88803h0.36697c0.23792,0,0.41043,0.03381,0.51755,0.09528
				c0.10931,0.061,0.16199,0.17908,0.16199,0.35599C419.33694,269.97336,419.25485,270.09717,419.08453,270.16696
				 M420.33517,268.70081c-0.43811-0.4324-0.96222-0.64661-1.58163-0.64661c-0.6062,0-1.13516,0.2142-1.56317,0.64661
				c-0.43808,0.43369-0.65012,0.95825-0.65012,1.57413c0,0.61502,0.20984,1.14178,0.64221,1.57327
				c0.42932,0.43811,0.95917,0.6554,1.57108,0.6554c0.61942,0,1.14352-0.21729,1.58163-0.6554
				c0.42929-0.43369,0.65097-0.96265,0.65097-1.57327C420.98615,269.65466,420.76447,269.13449,420.33517,268.70081
				 M420.1091,268.9216c0.37488,0.36609,0.55835,0.82263,0.55835,1.35333c0,0.52545-0.18347,0.9855-0.55835,1.35995
				c-0.36917,0.37268-0.82263,0.56406-1.35556,0.56406c-0.52896,0-0.97977-0.19138-1.35376-0.56406
				c-0.367-0.37445-0.55576-0.8345-0.55576-1.35995c0-0.5307,0.18875-0.98724,0.55576-1.35333
				c0.37924-0.38104,0.82834-0.56802,1.35376-0.56802C419.28427,268.35358,419.73553,268.54056,420.1091,268.9216"/>
			<g>
				<g>
					<path class="st2" d="M362.10443,260.87604c0.31741,0.55051,0.76486,0.97998,1.28101,1.27118l26.2059,15.12997l0.00082-0.00082
						c0.51126,0.30103,1.10596,0.47363,1.74155,0.47363s1.23111-0.17261,1.74155-0.47363l26.20673-15.12997
						c0.51614-0.2912,0.96198-0.71985,1.28018-1.27036c0.31821-0.55054,0.46625-1.15176,0.46054-1.74484v-30.25992l-0.00082-0.00082
						c0.00491-0.59224-0.14316-1.19431-0.46054-1.74483c-0.31821-0.55052-0.76566-0.97916-1.28101-1.27119l-26.2067-15.12996
						v-0.00082c-0.51047-0.30103-1.10516-0.47363-1.74075-0.47363c-0.63477,0-1.22946,0.17261-1.7399,0.47363v0.00082
						l-26.2059,15.12996c-0.51617,0.29204-0.96362,0.72067-1.28183,1.27119c-0.31738,0.55052-0.46545,1.15259-0.46054,1.74483
						l-0.00082,0.00082v30.25992c-0.00571,0.59308,0.14233,1.19431,0.45975,1.74484"/>
				</g>
				<g>
					<path class="st3" d="M386.26178,253.88443c0.88501,1.09724,2.3309,1.6033,3.58325,1.6033
						c1.75021,0,2.98856-1.15553,2.98856-2.55479v-18.1203c0-1.40623-1.14972-2.55711-2.55597-2.55711H390.203
						c-1.44357,0-2.62595,1.18236-2.62595,2.62709l-0.00116,12.88126c0,0.06531-0.08044,0.09445-0.12244,0.04431l-11.6546-13.94936
						c-0.88501-1.09608-2.33209-1.60214-3.58441-1.60214c-1.74905,0-2.98508,1.15788-2.98508,2.55595l-0.00232,18.1203
						c0,1.40509,1.14972,2.55597,2.55478,2.55597h0.07581c1.44357,0,2.62476-1.18237,2.62476-2.62593v-12.88243
						c0-0.06413,0.08279-0.09328,0.12479-0.04431L386.26178,253.88443z"/>
					<path class="st3" d="M413.07492,242.32849h-5.38596c-0.03381,0-0.0618-0.02682-0.0618-0.06297v-5.38478
						c0-1.24649-1.02026-2.26794-2.26794-2.26794c-1.24649,0-2.26794,1.02145-2.26794,2.26794v4.3575v0.53172v0.26701
						c0,0.15976-0.13177,0.29152-0.29269,0.29152h-0.33466h-0.46292h-4.58719c-1.24652,0-2.26682,1.02028-2.26682,2.26794
						s1.02029,2.26796,2.26562,2.26796h5.61685c0.03497,0,0.0618,0.02798,0.0618,0.0618v5.38594
						c0,1.24767,1.02145,2.26796,2.26794,2.26796c1.24768,0,2.26794-1.02029,2.26794-2.26796v-4.3575v-0.52821v-0.27052
						c0-0.1609,0.13062-0.2915,0.29153-0.2915h0.14923h0.64951h4.35748c1.24768,0,2.26797-1.02029,2.26797-2.26796
						S414.3226,242.32849,413.07492,242.32849"/>
				</g>
			</g>
		</g>
	</g>
	<g>
		<g>
			<g>
				<g>
					<line class="st9" x1="149.99995" y1="190.25" x2="150.00005" y2="90.25"/>
				</g>
			</g>
			<g>
				<line class="st9" x1="150" y1="190.25" x2="142.24734" y2="182.49733"/>
				<line class="st9" x1="150" y1="190.25" x2="157.75266" y2="182.49733"/>
			</g>
		</g>
		<line class="st9" x1="169.99998" y1="70.25" x2="458.0155" y2="70.2501"/>
		<path class="st9" d="M150,90.25c0-11.04569,8.9543-20,19.99998-20"/>
	</g>
	<g>
		<g>
			<g>
				<g>
					<line class="st9" x1="391.33325" y1="190.25" x2="391.33334" y2="115.2515"/>
				</g>
			</g>
			<g>
				<line class="st9" x1="391.33331" y1="190.25" x2="383.58066" y2="182.49733"/>
				<line class="st9" x1="391.33331" y1="190.25" x2="399.08594" y2="182.49733"/>
			</g>
		</g>
		<path class="st9" d="M391.33331,115.2515c0-11.0457,8.95428-20,19.99997-20"/>
		<line class="st9" x1="411.33328" y1="95.2515" x2="458.0155" y2="95.2515"/>
	</g>
	<g>
		<g>
			<g>
				<g>
					<line class="st9" x1="874.00012" y1="190.25" x2="874" y2="90.25"/>
				</g>
			</g>
			<g>
				<line class="st9" x1="874.00006" y1="190.25" x2="881.75269" y2="182.49733"/>
				<line class="st9" x1="874.00006" y1="190.25" x2="866.24738" y2="182.49733"/>
			</g>
		</g>
		<line class="st9" x1="854.00006" y1="70.25" x2="565.9845" y2="70.2501"/>
		<path class="st9" d="M874.00006,90.25c0-11.04569-8.95428-20-20-20"/>
	</g>
	<g>
		<g>
			<g>
				<g>
					<line class="st9" x1="632.66675" y1="190.25" x2="632.66669" y2="115.2515"/>
				</g>
			</g>
			<g>
				<line class="st9" x1="632.66669" y1="190.25" x2="640.41937" y2="182.49733"/>
				<line class="st9" x1="632.66669" y1="190.25" x2="624.91406" y2="182.49733"/>
			</g>
		</g>
		<path class="st9" d="M632.66669,115.2515c0-11.0457-8.95428-20-19.99994-20"/>
		<line class="st9" x1="612.66675" y1="95.2515" x2="565.9845" y2="95.2515"/>
	</g>
	<g>
		<rect x="20" y="20" class="st0" width="416.92938" height="95.4417"/>
		<path class="st10" d="M21.72754,20.00195h5.37158c4.83154,0,7.58496,3.77832,7.58496,9.01562
			c0,5.23633-2.72607,8.98828-7.58496,8.98828h-5.37158V20.00195z M27.09912,35.36035c2.94238,0,4.50781-2.64551,4.50781-6.34277
			c0-3.7793-1.51172-6.39746-4.50781-6.39746h-2.37549v12.74023H27.09912z"/>
		<path class="st10" d="M44.08154,36.68359c-0.78271,1.0791-2.10547,1.64648-3.42822,1.64648
			c-2.10547,0-3.99463-1.56543-3.99463-4.3457c0-2.80762,1.88916-4.23828,3.99463-4.23828c1.32275,0,2.67236,0.5127,3.42822,1.56543
			v-1.88965c0-1.56543-0.91797-2.4834-2.5376-2.4834c-1.16064,0-2.24023,0.45898-3.23877,1.48535l-1.05273-1.88965
			c1.32275-1.32324,3.104-1.88965,4.77783-1.88965c2.72607,0,4.72363,1.26855,4.72363,4.4541v8.90723h-2.67236V36.68359z
			 M44.08154,33.06641c-0.5127-0.91797-1.48486-1.45801-2.45654-1.45801c-1.40332,0-2.26709,1.02637-2.26709,2.42969
			s0.86377,2.42871,2.26709,2.42871c0.97168,0,1.94385-0.53906,2.45654-1.42969V33.06641z"/>
		<path class="st10" d="M50.42822,35.09082v-7.77441h-1.70068v-2.34766h1.70068v-3.56348h2.69922v3.56348h2.15918v2.34766h-2.15918
			v7.20703c0,0.89062,0.29688,1.43066,0.99854,1.43066c0.43213,0,0.83691-0.18848,1.02588-0.43164l0.64795,2.02441
			c-0.48584,0.48633-1.2417,0.7832-2.34863,0.7832C51.3999,38.33008,50.42822,37.22266,50.42822,35.09082z"/>
		<path class="st10" d="M64.33105,36.68359c-0.78271,1.0791-2.10547,1.64648-3.42822,1.64648
			c-2.10547,0-3.99463-1.56543-3.99463-4.3457c0-2.80762,1.88916-4.23828,3.99463-4.23828c1.32275,0,2.67236,0.5127,3.42822,1.56543
			v-1.88965c0-1.56543-0.91797-2.4834-2.5376-2.4834c-1.16064,0-2.24023,0.45898-3.23877,1.48535l-1.05273-1.88965
			c1.32275-1.32324,3.104-1.88965,4.77783-1.88965c2.72607,0,4.72363,1.26855,4.72363,4.4541v8.90723h-2.67236V36.68359z
			 M64.33105,33.06641c-0.5127-0.91797-1.48486-1.45801-2.45654-1.45801c-1.40332,0-2.26709,1.02637-2.26709,2.42969
			s0.86377,2.42871,2.26709,2.42871c0.97168,0,1.94385-0.53906,2.45654-1.42969V33.06641z"/>
		<path class="st10" d="M76.05029,20.00195h6.12744c3.53613,0,5.31738,2.59082,5.31738,5.58691
			c0,3.02344-1.78125,5.61523-5.31738,5.61523h-3.13135v6.80176h-2.99609V20.00195z M81.82666,22.62012h-2.78027v5.93848h2.78027
			c1.59277,0,2.61816-1.1875,2.61816-2.96973C84.44482,23.80762,83.41943,22.62012,81.82666,22.62012z"/>
		<path class="st10" d="M89.76611,20.00195h2.69922v18.00391h-2.69922V20.00195z"/>
		<path class="st10" d="M102.3999,36.68359c-0.78271,1.0791-2.10547,1.64648-3.42822,1.64648
			c-2.10547,0-3.99463-1.56543-3.99463-4.3457c0-2.80762,1.88916-4.23828,3.99463-4.23828c1.32275,0,2.67236,0.5127,3.42822,1.56543
			v-1.88965c0-1.56543-0.91797-2.4834-2.5376-2.4834c-1.16064,0-2.24023,0.45898-3.23877,1.48535l-1.05273-1.88965
			c1.32275-1.32324,3.104-1.88965,4.77783-1.88965c2.72607,0,4.72363,1.26855,4.72363,4.4541v8.90723h-2.67236V36.68359z
			 M102.3999,33.06641c-0.5127-0.91797-1.48486-1.45801-2.45654-1.45801c-1.40332,0-2.26709,1.02637-2.26709,2.42969
			s0.86377,2.42871,2.26709,2.42871c0.97168,0,1.94385-0.53906,2.45654-1.42969V33.06641z"/>
		<path class="st10" d="M115.46777,29.125c0-1.53809-0.70215-2.10547-1.86279-2.10547s-2.15918,0.89062-2.64502,1.80859v9.17773
			h-2.69922V24.96875h2.69922v1.75391c0.70166-1.05273,2.15918-2.07812,3.77881-2.07812c2.34863,0,3.42822,1.2959,3.42822,3.53613
			v9.8252h-2.69922V29.125z"/>
		<path class="st10" d="M126.29492,24.64453c3.53613,0,5.42578,2.99609,5.42578,6.9375v0.78223h-8.28711
			c0.10791,2.13281,1.2959,3.75195,3.40137,3.75195c1.02539,0,2.18604-0.5127,2.94189-1.40332l1.2959,1.61914
			c-1.10693,1.26855-2.75342,1.99805-4.50781,1.99805c-3.59033,0-5.85742-2.80762-5.85742-6.85645
			C120.70752,27.69434,122.81299,24.64453,126.29492,24.64453z M123.40674,30.44824h5.69531
			c-0.02686-1.62012-0.75586-3.61719-2.83398-3.61719C124.24365,26.83105,123.48779,28.88184,123.40674,30.44824z"/>
	</g>
</g>
</svg>
