<svg id="Layer_1" data-name="Layer 1" xmlns="http://www.w3.org/2000/svg" viewBox="0 0 63.34 72">

<!-- <defs><style>.cls-1{fill:#009639;}.cls-2{fill:#999;}</style></defs> -->
<defs><style>.cls-1{fill:#009639;}.cls-2{fill:#fff;}.cls-3{fill:#999;}</style></defs>

<path class="cls-1" d="M63.35,20.58a3.81,3.81,0,0,0-.49-1.86,3.72,3.72,0,0,0-1.37-1.36L33.54,1.23h0a3.65,3.65,0,0,0-3.72,0h0L1.87,17.36A3.72,3.72,0,0,0,.5,18.72,3.81,3.81,0,0,0,0,20.58H0V52.86A3.7,3.7,0,0,0,.5,54.72h0a3.65,3.65,0,0,0,1.37,1.36l28,16.14h0a3.65,3.65,0,0,0,3.72,0l28-16.13a3.65,3.65,0,0,0,1.37-1.36,3.7,3.7,0,0,0,.49-1.86V20.58Zm-10.6,24a4.5,4.5,0,0,1-4.16-6.22l-5.4-3.12-.1.07-10.7,6.18-.11,0v5.74a6,6,0,1,1-1.2,0V41.58l-.11,0h0l-10.7-6.18-.1-.07-5.4,3.12a4.64,4.64,0,1,1-.62-1l5.42-3.13s0-.08,0-.12V21.76h0a1.4,1.4,0,0,1,.72-1.23L31,14.35h0a1.36,1.36,0,0,1,1.42,0h0l10.7,6.18a1.4,1.4,0,0,1,.72,1.23h0V34.12s0,.08,0,.12l5.42,3.13a4.49,4.49,0,1,1,3.54,7.25Z" transform="translate(-0.01 -0.72)"/><path class="cls-2" d="M60,66h.46V65h.37a1,1,0,0,1,.51.09c.16.09.24.29.24.59V66s0,0,0,0,0,0,0,0H62v0a.31.31,0,0,1,0-.13,1.34,1.34,0,0,1,0-.19v-.2a.75.75,0,0,0-.14-.4.68.68,0,0,0-.45-.26.94.94,0,0,0,.37-.12.56.56,0,0,0,.26-.52.65.65,0,0,0-.4-.66,2.09,2.09,0,0,0-.72-.09H60Zm1.31-1.4a1.18,1.18,0,0,1-.44.06h-.41v-.95h.4a1.25,1.25,0,0,1,.55.1.41.41,0,0,1,.17.38.4.4,0,0,1-.27.41m1.34-1.56a2.33,2.33,0,0,0-1.69-.69,2.28,2.28,0,0,0-1.67.69,2.39,2.39,0,0,0,0,3.35,2.38,2.38,0,0,0,3.37,0,2.38,2.38,0,0,0,0-3.35m-.25.23a2,2,0,0,1,.6,1.45,2,2,0,0,1-2,2,2,2,0,0,1-2-2,2,2,0,0,1,2-2,2,2,0,0,1,1.44.6" transform="translate(-0.01 -0.72)"/></svg>