<svg id="Layer_1" data-name="Layer 1" xmlns="http://www.w3.org/2000/svg" viewBox="0 0 63.36 73.44"><defs><style>.cls-1{fill:#fff;}</style></defs><title>NGINX-hex-source-RGB-02</title><path class="cls-1" d="M63.34763,20.58185a3.66658,3.66658,0,0,0-1.85761-3.217L33.53635,1.22626V1.22534a3.66325,3.66325,0,0,0-3.71271,0v.00092L1.87088,17.36481a3.665,3.665,0,0,0-1.85852,3.217l-.00085.00091v32.2771A3.64426,3.64426,0,0,0,.50186,54.721H.50272A3.637,3.637,0,0,0,1.86911,56.0769L29.82193,72.21545l.00086-.00085a3.668,3.668,0,0,0,3.71527,0L61.49173,56.07605a3.66566,3.66566,0,0,0,1.85681-3.21619V20.58276ZM47.81839,24.432l-.00348,24.67553c0,1.91175-1.69012,3.4928-4.08178,3.4928a6.38846,6.38846,0,0,1-4.90021-2.191L22.72843,31.1366V49.00891l.0017-.00091a3.59488,3.59488,0,1,1-7.18975,0l.00091.00091.00348-24.67731c0-1.91174,1.68921-3.49279,4.08173-3.49279a6.39281,6.39281,0,0,1,4.9002,2.191L25.613,24.3299,40.63126,42.30249V24.432h-.00177a3.59488,3.59488,0,0,1,7.18976,0Z"/><path class="cls-1" d="M59.97478,66.0341h.45934V65.011h.36335a1.03674,1.03674,0,0,1,.51037.08522.63917.63917,0,0,1,.24255.59513v.20976l.01029.0782a.15781.15781,0,0,1,.007.03278c.00234.01264.00328.01638.0103.022h.42563l-.01546-.029a.29863.29863,0,0,1-.0206-.133c-.00609-.07351-.00609-.13625-.00609-.19431v-.19385a.74194.74194,0,0,0-.14234-.40549.66129.66129,0,0,0-.45325-.25472,1.11884,1.11884,0,0,0,.37787-.12268.56673.56673,0,0,0,.25378-.51505.64008.64008,0,0,0-.40174-.66068,1.99906,1.99906,0,0,0-.71219-.09318h-.90884Zm1.30637-1.40282a1.1882,1.1882,0,0,1-.43686.05806h-.41017V63.7421h.39144a1.1555,1.1555,0,0,1,.552.10161.39413.39413,0,0,1,.17278.37974.40087.40087,0,0,1-.26924.40783m1.334-1.5639a2.30792,2.30792,0,0,0-1.687-.68971,2.373,2.373,0,0,0,0,4.746,2.37724,2.37724,0,0,0,1.687-4.0563m-.24114.23552a1.94359,1.94359,0,0,1,.59559,1.44356,2.03922,2.03922,0,0,1-3.48552,1.45059,2.01311,2.01311,0,0,1-.59279-1.45059A2.04627,2.04627,0,0,1,60.9281,62.697a1.946,1.946,0,0,1,1.44591.60589"/></svg>