<?xml version="1.0" encoding="utf-8"?>
<!-- Generator: Adobe Illustrator 24.2.3, SVG Export Plug-In . SVG Version: 6.00 Build 0)  -->
<svg version="1.1" xmlns="http://www.w3.org/2000/svg" xmlns:xlink="http://www.w3.org/1999/xlink" x="0px" y="0px"
	 viewBox="0 0 1024 308" style="enable-background:new 0 0 1024 308;" xml:space="preserve">
<style type="text/css">
	.st0{fill:none;}
	.st1{fill:#343434;}
	.st2{fill:#009639;}
	.st3{fill:#FFFFFF;}
	.st4{fill:none;stroke:#FFFFFF;stroke-width:0.96387;stroke-linecap:round;stroke-miterlimit:10;}
	.st5{fill:none;stroke:#FFFFFF;stroke-width:0.964;stroke-miterlimit:10;}
	.st6{fill:#999999;}
	.st7{fill:#CCCCCC;}
	.st8{fill:none;stroke:#666666;stroke-width:2;stroke-linecap:round;stroke-miterlimit:10;}
	.st9{fill:none;stroke:#009639;stroke-width:2;stroke-linecap:round;stroke-linejoin:round;stroke-miterlimit:10;}
	.st10{fill:#222222;}
</style>
<g id="Background">
</g>


<g>
		<g>
			<path class="st2" d="M468.69803,95.25151c0.47018,0.81559,1.13309,1.45183,1.8978,1.88326l38.82349,22.41477l0.00122-0.00121
				c0.75742,0.44597,1.63846,0.70168,2.58008,0.70168c0.94159,0,1.82385-0.25571,2.58008-0.70168l38.82471-22.41477
				c0.76471-0.43143,1.42517-1.06645,1.89661-1.88204c0.47137-0.81558,0.69073-1.70631,0.68225-2.58492V47.83704l-0.00122-0.00121
				c0.00726-0.87739-0.21204-1.76933-0.68225-2.58492c-0.47144-0.81559-1.13434-1.45061-1.89783-1.88325l-38.82471-22.41477
				v-0.00121c-0.75623-0.44597-1.63721-0.70168-2.57886-0.70168c-0.9404,0-1.82144,0.2557-2.57764,0.70168v0.00121
				l-38.82352,22.41477c-0.76468,0.43264-1.42758,1.06766-1.89902,1.88325c-0.47018,0.81559-0.68954,1.70753-0.68228,2.58492
				l-0.00119,0.00121V92.6666c-0.00848,0.8786,0.21085,1.76933,0.68106,2.58492"/>
			<g>
				<g>
					<path class="st3" d="M495.41968,67.62679c0.18002,0.31229,0.43387,0.55591,0.72665,0.7211l14.86554,8.58262l0.00046-0.00047
						c0.29001,0.17076,0.62735,0.26867,0.98792,0.26867c0.36053,0,0.69836-0.09791,0.98792-0.26867l14.86597-8.58262
						c0.29279-0.16519,0.54572-0.40834,0.7262-0.72063c0.18048-0.31229,0.26453-0.65334,0.26123-0.98976V49.47179l-0.00043-0.00046
						c0.00275-0.33595-0.08124-0.67748-0.26129-0.98977c-0.18048-0.31229-0.43433-0.55544-0.72662-0.7211l-14.86597-8.58262
						v-0.00047c-0.28955-0.17076-0.62695-0.26867-0.98749-0.26867c-0.36008,0-0.69742,0.09791-0.98697,0.26867v0.00047
						l-14.86551,8.58262c-0.29282,0.16565-0.54663,0.40881-0.72714,0.7211c-0.18005,0.31229-0.26404,0.65381-0.26123,0.98977
						l-0.00049,0.00046v17.16524c-0.00323,0.33642,0.08075,0.67747,0.2608,0.98976"/>
				</g>
				<circle class="st3" cx="482.73486" cy="74.97176" r="6.25003"/>
				<line class="st4" x1="511.99963" y1="58.04889" x2="511.99963" y2="93.25909"/>
				<line class="st5" x1="511.99963" y1="58.04889" x2="482.73486" y2="74.95785"/>
				<circle class="st3" cx="541.2644" cy="74.97176" r="6.25003"/>
				<line class="st5" x1="511.99963" y1="58.04889" x2="541.2644" y2="74.95785"/>
				<circle class="st3" cx="512" cy="93.25784" r="8.33338"/>
			</g>
		</g>
		<path class="st6" d="M551.29852,110.96273h0.63794v-1.42097h0.50464c0.33362,0,0.57294,0.03252,0.70886,0.11836
			c0.22308,0.13071,0.33685,0.411,0.33685,0.82656v0.29135l0.01434,0.1086c0.00781,0.02406,0.00781,0.03381,0.00977,0.04552
			c0.00323,0.01756,0.00452,0.02277,0.01428,0.03057h0.59113l-0.02142-0.04032c-0.01758-0.02731-0.02734-0.0891-0.02863-0.18469
			c-0.00848-0.1021-0.00848-0.18925-0.00848-0.26989v-0.26923c0-0.18079-0.06763-0.36549-0.19769-0.56318
			c-0.13397-0.19055-0.34467-0.3037-0.62952-0.35378c0.22504-0.03772,0.40192-0.09755,0.52484-0.17039
			c0.24127-0.15218,0.35248-0.3993,0.35248-0.71535c0-0.45458-0.1795-0.76543-0.55798-0.91761
			c-0.20874-0.08585-0.53589-0.12942-0.98914-0.12942h-1.26227V110.96273z M553.11292,109.01435
			c-0.12811,0.05527-0.33167,0.08064-0.60675,0.08064h-0.5697v-1.31561h0.5437c0.35242,0,0.60803,0.05007,0.76672,0.14112
			c0.16193,0.09039,0.23993,0.26533,0.23993,0.52741C553.48682,108.72755,553.36523,108.91095,553.11292,109.01435
			 M554.9657,106.84225c-0.64905-0.64057-1.42554-0.95793-2.34314-0.95793c-0.89813,0-1.68176,0.31736-2.3158,0.95793
			c-0.64905,0.64252-0.96313,1.41966-0.96313,2.33208c0,0.9111,0.31085,1.6915,0.95142,2.33076
			c0.63599,0.64903,1.42096,0.97094,2.32751,0.97094c0.9176,0,1.69409-0.32191,2.34314-0.97094
			c0.63599-0.64252,0.96442-1.42616,0.96442-2.33076C555.93011,108.25542,555.60168,107.48478,554.9657,106.84225
			 M554.6308,107.16937c0.55536,0.54237,0.82721,1.21871,0.82721,2.00496c0,0.77844-0.27185,1.45998-0.82721,2.01471
			c-0.54694,0.55213-1.21875,0.83567-2.00824,0.83567c-0.78363,0-1.45154-0.28354-2.00562-0.83567
			c-0.54364-0.55473-0.8233-1.23627-0.8233-2.01471c0-0.78625,0.27966-1.46259,0.8233-2.00496
			c0.56189-0.56448,1.22717-0.84152,2.00562-0.84152C553.40881,106.32785,554.07733,106.60489,554.6308,107.16937"/>
	</g>
                </svg>