<svg xmlns="http://www.w3.org/2000/svg" x="0px" y="0px" stroke="#00a980" fill="#00a980" viewBox="0 0 63.36 73.44"><title>NGINX Instance Manager</title><path d="M63.3476,20.5819c0.0052-0.6317-0.1526-1.2739-0.4912-1.8611c-0.3394-0.5872-0.8167-1.0444-1.3664-1.356 L33.5363,1.2263V1.2254c-0.5445-0.3211-1.1788-0.5052-1.8568-0.5052c-0.6771,0-1.3115,0.1841-1.8559,0.5052v0.0009L1.8709,17.3648 c-0.5506,0.3115-1.0278,0.7687-1.3673,1.356c-0.3385,0.5872-0.4965,1.2294-0.4912,1.8611l-0.0009,0.0009v32.2771 c-0.0061,0.6326,0.1518,1.2739,0.4904,1.8611h0.0009c0.3386,0.5872,0.8159,1.0453,1.3664,1.3559l27.9528,16.1385l0.0009-0.0009 c0.5453,0.3211,1.1797,0.5052,1.8577,0.5052c0.678,0,1.3132-0.1841,1.8577-0.5052L61.4917,56.076 c0.5506-0.3106,1.0261-0.7678,1.3655-1.355s0.4974-1.2286,0.4913-1.8611V20.5828L63.3476,20.5819z M52.7503,44.6196 c-2.4853,0-4.5-2.0147-4.5-4.5c0-0.6082,0.1239-1.1868,0.3426-1.716l-5.4053-3.1232c-0.0319,0.0217-0.0591,0.0508-0.0927,0.0698 l-10.7035,6.1794c-0.0338,0.02-0.0736,0.0293-0.1092,0.0464v5.7401c3.0309,0.3021,5.3978,2.8591,5.3978,5.9695 c0,3.3137-2.6863,6-6,6s-6-2.6863-6-6c0-3.1102,2.3666-5.6671,5.3972-5.9695v-5.7405c-0.0353-0.017-0.0747-0.0262-0.1083-0.046 L30.9685,41.53l-10.7031-6.1794c-0.0337-0.019-0.0612-0.0485-0.0933-0.0703l-5.4055,3.1234 c0.2187,0.5292,0.3426,1.1078,0.3426,1.7161c0,2.4853-2.0147,4.5-4.5,4.5s-4.5-2.0147-4.5-4.5c0-2.4852,2.0147-4.5,4.5-4.5 c1.4442,0,2.7149,0.6924,3.5383,1.75l5.4211-3.1324c-0.003-0.0396-0.0149-0.079-0.0145-0.1185V21.7598l0.0004-0.0003 c-0.002-0.2419,0.0585-0.4878,0.1881-0.7126c0.1299-0.2249,0.3127-0.3999,0.5235-0.5192l10.7031-6.1794v-0.0004 c0.2085-0.1229,0.4514-0.1934,0.7106-0.1934c0.2596,0,0.5025,0.0705,0.7109,0.1934v0.0004l10.7035,6.1794 c0.2104,0.1193,0.3932,0.2943,0.5232,0.5192c0.1296,0.2249,0.1901,0.4708,0.1881,0.7126l0.0003,0.0003v12.3589 c0.0004,0.0397-0.0115,0.079-0.0145,0.1188l5.4205,3.1321c0.8234-1.0576,2.0942-1.75,3.5384-1.75c2.4853,0,4.5,2.0148,4.5,4.5 C57.2503,42.6049,55.2356,44.6196,52.7503,44.6196z"></path><path d="M59.9748,66.033h0.4593v-1.0231h0.3633c0.2402,0,0.4125,0.0234,0.5104,0.0852 c0.1606,0.0941,0.2425,0.2959,0.2425,0.5951V65.9l0.0103,0.0782c0.0056,0.0173,0.0056,0.0244,0.007,0.0328 c0.0023,0.0126,0.0033,0.0164,0.0103,0.022h0.4256l-0.0155-0.029c-0.0126-0.0197-0.0197-0.0641-0.0206-0.133 c-0.0061-0.0735-0.0061-0.1363-0.0061-0.1943v-0.1939c0-0.1302-0.0487-0.2631-0.1423-0.4055 c-0.0965-0.1372-0.2482-0.2187-0.4533-0.2547c0.162-0.0272,0.2894-0.0702,0.3779-0.1227 c0.1737-0.1096,0.2538-0.2875,0.2538-0.5151c0-0.3273-0.1292-0.5511-0.4017-0.6607c-0.1503-0.0618-0.3858-0.0932-0.7122-0.0932 h-0.9088V66.033z M61.2811,64.6302c-0.0922,0.0398-0.2388,0.0581-0.4369,0.0581h-0.4102V63.741h0.3914 c0.2538,0,0.4378,0.0361,0.552,0.1016c0.1166,0.0651,0.1728,0.191,0.1728,0.3797C61.5504,64.4237,61.4628,64.5558,61.2811,64.6302 M62.6152,63.0663c-0.4673-0.4612-1.0264-0.6897-1.687-0.6897c-0.6466,0-1.2108,0.2285-1.6674,0.6897 c-0.4673,0.4626-0.6935,1.0222-0.6935,1.6791c0,0.656,0.2238,1.2179,0.685,1.6781c0.4579,0.4673,1.0231,0.6991,1.6758,0.6991 c0.6607,0,1.2198-0.2318,1.687-0.6991c0.4579-0.4626,0.6944-1.0268,0.6944-1.6781 C63.3095,64.0838,63.0731,63.5289,62.6152,63.0663 M62.374,63.3018c0.3999,0.3905,0.5956,0.8775,0.5956,1.4436 c0,0.5605-0.1957,1.0512-0.5956,1.4506c-0.3938,0.3975-0.8775,0.6017-1.4459,0.6017c-0.5642,0-1.0451-0.2042-1.444-0.6017 c-0.3914-0.3994-0.5928-0.8901-0.5928-1.4506c0-0.5661,0.2013-1.0531,0.5928-1.4436c0.4045-0.4064,0.8836-0.6059,1.444-0.6059 C61.4942,62.6959,61.9755,62.8954,62.374,63.3018"></path></svg>